<?xml version="1.0" encoding="UTF-8"?>
<svg version="1.1" xmlns="http://www.w3.org/2000/svg" width="228" height="131">
<path d="M0 0 C0.66 0 1.32 0 2 0 C5.78818725 7.50691321 9.56991147 15.0170312 13.34339142 22.53134632 C15.09570695 26.02031085 16.85024105 29.50812226 18.60986328 32.9934082 C20.30739909 36.35592234 21.99908291 39.72132025 23.6867218 43.08881187 C24.3321355 44.37408933 24.97966325 45.65830742 25.62931824 46.9414463 C26.53773833 48.73656173 27.43800947 50.53579396 28.33789062 52.33520508 C29.11066345 53.87075798 29.11066345 53.87075798 29.89904785 55.43733215 C31 58 31 58 31 61 C25.39 61 19.78 61 14 61 C12.36931195 57.96126396 10.74532864 54.91925381 9.125 51.875 C8.66480469 51.0190625 8.20460938 50.163125 7.73046875 49.28125 C5.42024407 44.92865278 3.35883566 40.76373422 2 36 C1.34 36 0.68 36 0 36 C-0.4640625 37.918125 -0.4640625 37.918125 -0.9375 39.875 C-3.6288288 47.98743396 -10.46166759 55.066957 -18 59 C-23.2892587 60.81119394 -27.83188002 61.27325628 -33.33984375 61.1953125 C-34.10680069 61.1924826 -34.87375763 61.18965271 -35.66395569 61.18673706 C-38.08863621 61.17563475 -40.51293309 61.15054967 -42.9375 61.125 C-44.5917915 61.1149573 -46.24608885 61.10583372 -47.90039062 61.09765625 C-51.93385673 61.07743837 -55.96650422 61.0382725 -60 61 C-60 70.9 -60 80.8 -60 91 C-65.28 91 -70.56 91 -76 91 C-76 75.82 -76 60.64 -76 45 C-70.79863281 44.94392578 -70.79863281 44.94392578 -65.4921875 44.88671875 C-62.12623866 44.84048063 -58.76040001 44.78925515 -55.39453125 44.73754883 C-53.05898763 44.70433667 -50.72336447 44.67629324 -48.38769531 44.65356445 C-45.02634855 44.61995099 -41.66572831 44.56762997 -38.3046875 44.51171875 C-36.74341629 44.50213387 -36.74341629 44.50213387 -35.15060425 44.49235535 C-29.74638046 44.38326292 -25.58723586 44.18836963 -21 41 C-19.51270302 39.320673 -19.51270302 39.320673 -18.61328125 37.32421875 C-18.2373584 36.58856689 -17.86143555 35.85291504 -17.47412109 35.0949707 C-17.09078613 34.30050537 -16.70745117 33.50604004 -16.3125 32.6875 C-15.89822754 31.86531982 -15.48395508 31.04313965 -15.05712891 30.19604492 C-14.16542871 28.4207811 -13.28193085 26.64137868 -12.40576172 24.85839844 C-10.92478559 21.84706317 -9.41996415 18.84853826 -7.91015625 15.8515625 C-5.25587392 10.57636114 -2.62137278 5.29162371 0 0 Z " fill="#D9D9D9" transform="translate(79,35)"/>
<path d="M0 0 C11.88 0 23.76 0 36 0 C36 1.65 36 3.3 36 5 C35.030625 5.474375 34.06125 5.94875 33.0625 6.4375 C30.19522563 7.70193947 30.19522563 7.70193947 29 9 C28.75351016 11.96396421 28.57136248 14.90528705 28.4375 17.875 C28.37381226 19.2038623 28.37381226 19.2038623 28.30883789 20.55957031 C27.90677649 29.70747837 27.90679871 38.84556228 28 48 C35.76591716 42.10907311 43.40449283 36.08535942 50.95141602 29.91625977 C56.16706234 25.65878252 61.43888599 21.47858865 66.74780273 17.33813477 C69.46517149 15.27486715 69.46517149 15.27486715 72 13 C72.04063832 11.33382885 72.042721 9.66611905 72 8 C70.02 7.01 68.04 6.02 66 5 C66 3.35 66 1.7 66 0 C75.57 0 85.14 0 95 0 C95 1.65 95 3.3 95 5 C93.1640625 6.703125 93.1640625 6.703125 90.625 8.25 C85.83154844 11.36473224 81.74748866 14.8186164 77.5546875 18.69140625 C75.00128537 20.99883845 72.37264512 23.16049239 69.6875 25.3125 C64.87414563 29.20255931 60.3523855 33.32871834 55.83886719 37.55566406 C51.62606859 41.47878593 47.23604648 45.11896414 42.74609375 48.72265625 C39.73680189 51.21827098 36.8607442 53.83778455 34 56.5 C28.52824018 61.58758945 22.86686037 66.36826813 17 71 C16.319375 71.5775 15.63875 72.155 14.9375 72.75 C13 74 13 74 9 74 C8.99191315 73.20486496 8.98382629 72.40972992 8.97549438 71.59049988 C8.89758609 64.10077103 8.81030706 56.61123806 8.71247292 49.12174511 C8.66250546 45.27122292 8.6161756 41.42072822 8.578125 37.57006836 C8.54127764 33.85466361 8.49491948 30.13948863 8.44193649 26.42428017 C8.42338956 25.00613748 8.40828267 23.58794554 8.39665604 22.16972923 C8.3797995 20.18491367 8.34962925 18.20022462 8.31884766 16.21557617 C8.30552399 15.08528488 8.29220032 13.95499359 8.2784729 12.79045105 C8.19958582 9.790933 8.19958582 9.790933 6 7 C5.154375 6.525625 4.30875 6.05125 3.4375 5.5625 C1 4 1 4 0 0 Z " fill="#D9D9D9" transform="translate(117,55)"/>
<path d="M0 0 C1.49549126 -0.00412399 1.49549126 -0.00412399 3.02119446 -0.0083313 C4.11379578 -0.00114075 5.20639709 0.0060498 6.33210754 0.01345825 C8.05914665 0.01302017 8.05914665 0.01302017 9.82107544 0.01257324 C13.63578262 0.01396923 17.45029571 0.02954333 21.26496887 0.04519653 C23.90626926 0.0489257 26.54757103 0.05177313 29.18887329 0.05377197 C35.43618359 0.0599901 41.68342396 0.07640539 47.93070346 0.09647095 C55.04308251 0.11881962 62.15546489 0.12982078 69.26787031 0.13986182 C83.89845479 0.16077136 98.52896357 0.19745174 113.15950012 0.24050903 C113.15950012 8.16050903 113.15950012 16.08050903 113.15950012 24.24050903 C111.17950012 24.57050903 109.19950012 24.90050903 107.15950012 25.24050903 C106.98934387 24.62562622 106.81918762 24.01074341 106.64387512 23.37722778 C105.21110939 18.40246351 105.21110939 18.40246351 102.28450012 14.24050903 C97.93567414 12.19400269 93.58058375 12.1125969 88.83528137 12.10769653 C87.64225403 12.10640747 86.44922668 12.10511841 85.220047 12.10379028 C83.98319153 12.10765747 82.74633606 12.11152466 81.47200012 12.11550903 C80.22354309 12.11164185 78.97508606 12.10777466 77.688797 12.10379028 C76.49963684 12.10507935 75.31047668 12.10636841 74.08528137 12.10769653 C72.99642639 12.10882446 71.90757141 12.10995239 70.78572083 12.1111145 C68.17924242 12.06286434 68.17924242 12.06286434 66.15950012 13.24050903 C66.17110168 13.80971069 66.18270325 14.37891235 66.19465637 14.96536255 C66.37860628 31.1381729 66.37860628 31.1381729 63.62825012 35.88113403 C61.56868113 37.6301331 59.51097176 38.91363522 57.15950012 40.24050903 C55.499099 41.53453057 53.85299616 42.84711627 52.22200012 44.17800903 C48.29796166 47.24050903 48.29796166 47.24050903 47.15950012 47.24050903 C47.13444397 46.21578491 47.10938782 45.19106079 47.08357239 44.13528442 C46.98965529 40.34641227 46.88939695 36.55773022 46.78718567 32.76907349 C46.74377716 31.126866 46.70210655 29.48461164 46.66218567 27.84231567 C46.60462572 25.48662158 46.54089121 23.13116475 46.47590637 20.77566528 C46.45919388 20.03711807 46.44248138 19.29857086 46.42526245 18.53764343 C46.62401999 15.09750276 46.62401999 15.09750276 45.15950012 12.24050903 C42.57503847 12.11458664 40.01880199 12.05183767 37.43293762 12.03738403 C36.65189667 12.03168396 35.87085571 12.02598389 35.06614685 12.02011108 C33.406686 12.01064251 31.74720619 12.00411976 30.08772278 12.00027466 C27.56573256 11.99062849 25.04457801 11.9596489 22.52278137 11.92800903 C20.90950495 11.92147309 19.29622271 11.91622494 17.68293762 11.91238403 C16.56065262 11.89386383 16.56065262 11.89386383 15.41569519 11.87496948 C10.28663155 11.89643814 6.71133284 12.82949594 2.15950012 15.24050903 C0.65043444 17.4022511 0.65043444 17.4022511 -0.02799988 19.86550903 C-0.82096863 22.27957153 -0.82096863 22.27957153 -1.84049988 24.24050903 C-3.82878113 25.13894653 -3.82878113 25.13894653 -5.84049988 25.24050903 C-8.77922643 22.30178248 -8.1321899 19.71684283 -8.1627655 15.69754028 C-8.15954285 14.72171997 -8.15632019 13.74589966 -8.15299988 12.74050903 C-8.1771698 11.27677856 -8.1771698 11.27677856 -8.201828 9.78347778 C-8.20247253 8.8514856 -8.20311707 7.91949341 -8.20378113 6.95925903 C-8.20676208 6.102677 -8.20974304 5.24609497 -8.21281433 4.36355591 C-8.08995056 3.66295044 -7.96708679 2.96234497 -7.84049988 2.24050903 C-4.5978851 0.07876585 -3.73862528 -0.00794607 0 0 Z " fill="#D9D9D9" transform="translate(111.84049987792969,34.759490966796875)"/>
<path d="M0 0 C7.07995205 -0.10196962 14.15971257 -0.17170349 21.24023438 -0.21972656 C23.64557981 -0.23976034 26.05087703 -0.26699522 28.45605469 -0.30175781 C31.92655378 -0.35063808 35.39640526 -0.37305205 38.8671875 -0.390625 C40.46311234 -0.42159271 40.46311234 -0.42159271 42.09127808 -0.45318604 C52.82948092 -0.45636575 60.27334874 2.6092901 68 10 C67.39733215 14.50727647 65.63400206 17.8587963 63.4375 21.8125 C63.10814453 22.40998047 62.77878906 23.00746094 62.43945312 23.62304688 C61.63226733 25.08533998 60.81695083 26.5431399 60 28 C58 25 58 25 57.1875 22.4375 C56.2021482 19.79577 56.2021482 19.79577 53.5625 18.75 C52.716875 18.5025 51.87125 18.255 51 18 C50.01 17.67 49.02 17.34 48 17 C45.57785502 17.01259537 43.18025362 17.07755904 40.76171875 17.17578125 C14.00207322 17.83357164 14.00207322 17.83357164 6.60864258 11.0222168 C0 3.55177968 0 3.55177968 0 0 Z " fill="#D9D9D9" transform="translate(3,35)"/>
<path d="M0 0 C4.55841429 1.48485932 6.26500992 5.16088357 8.5625 9.0625 C9.43593098 10.50615877 10.31099126 11.94883279 11.1875 13.390625 C11.87005859 14.51887695 11.87005859 14.51887695 12.56640625 15.66992188 C15.4436582 20.34643628 18.48322035 24.92024208 21.50805664 29.50219727 C21.95012451 30.17822998 22.39219238 30.8542627 22.84765625 31.55078125 C23.23961182 32.14544189 23.63156738 32.74010254 24.03540039 33.3527832 C25 35 25 35 26 38 C20.41948344 38.46020499 14.85800843 38.72508288 9.2578125 38.6015625 C8.3414502 38.58432129 7.42508789 38.56708008 6.48095703 38.54931641 C3.27505525 37.83948773 2.20276073 36.58709702 0.25 34 C-0.08515625 33.10023437 -0.4203125 32.20046875 -0.765625 31.2734375 C-2.67625989 26.20662725 -5.88450697 21.98805884 -8.92871094 17.53515625 C-12.11032627 12.61220263 -12.11032627 12.61220263 -11.6015625 9.7890625 C-9.5379545 7.48386136 -7.32795059 5.63688507 -4.875 3.75 C-3.96492187 3.04359375 -3.05484375 2.3371875 -2.1171875 1.609375 C-1.41851562 1.07828125 -0.71984375 0.5471875 0 0 Z " fill="#D9D9D9" transform="translate(182,91)"/>
<path d="M0 0 C1 3 1 3 0.35424805 4.76733398 C-0.00628662 5.42032471 -0.36682129 6.07331543 -0.73828125 6.74609375 C-1.14191895 7.49205811 -1.54555664 8.23802246 -1.96142578 9.0065918 C-2.40728027 9.8087915 -2.85313477 10.61099121 -3.3125 11.4375 C-4.23504785 13.13955603 -5.15555202 14.84272104 -6.07421875 16.546875 C-6.79424072 17.8781543 -6.79424072 17.8781543 -7.52880859 19.23632812 C-9.98118029 23.84317307 -12.3041726 28.51335952 -14.625 33.1875 C-15.06239502 34.06656006 -15.49979004 34.94562012 -15.95043945 35.85131836 C-16.96873579 37.89999703 -17.98465094 39.94985903 -19 42 C-24.94 42 -30.88 42 -37 42 C-27.58269863 13.74809588 -27.58269863 13.74809588 -19.1171875 9.4921875 C-15.50797895 8.20634823 -11.76684134 7.66191894 -8 7 C-4.67885435 5.27909041 -1.71502655 3.4300531 0 0 Z " fill="#D9D9D9" transform="translate(72,87)"/>
<path d="M0 0 C5.94 0 11.88 0 18 0 C19.98440019 3.74731379 21.96268999 7.49763683 23.9375 11.25 C24.78344727 12.84521484 24.78344727 12.84521484 25.64648438 14.47265625 C26.18466797 15.49746094 26.72285156 16.52226563 27.27734375 17.578125 C27.77484131 18.52075195 28.27233887 19.46337891 28.78491211 20.43457031 C30 23 30 23 31 27 C25.39 27 19.78 27 14 27 C6.23214286 13.47321429 6.23214286 13.47321429 2.5 6.75 C2.0153125 5.87859375 1.530625 5.0071875 1.03125 4.109375 C0 2 0 2 0 0 Z " fill="#D9D9D9" transform="translate(94,99)"/>
<path d="M0 0 C3.49642065 1.92659913 4.68231206 2.92474851 5.8125 6.75 C5.874375 7.4925 5.93625 8.235 6 9 C3.1875 9.1875 3.1875 9.1875 0 9 C-1 8 -2 7 -3 6 C-6.31818985 6.24205349 -6.31818985 6.24205349 -9 8 C-9.16666667 11.5 -9.16666667 11.5 -9 15 C-7.88741409 16.32745166 -7.88741409 16.32745166 -5.0625 16.25 C-4.051875 16.1675 -3.04125 16.085 -2 16 C-1.34 15.01 -0.68 14.02 0 13 C3.125 12.8125 3.125 12.8125 6 13 C5.52048204 17.31566167 4.29764982 19.2019941 1 22 C-2.06429776 23.53214888 -4.6165642 23.22938548 -8 23 C-11.62535141 21.352113 -14.20557709 19.58884581 -16 16 C-16.59750228 11.63741485 -16.49344078 8.10436747 -14.6875 4.0625 C-10.59112045 -0.94418612 -6.0118961 -0.77665643 0 0 Z " fill="#FFFFFF" transform="translate(137,3)"/>
<path d="M0 0 C1.98 0 3.96 0 6 0 C6 2.64 6 5.28 6 8 C8.31 8 10.62 8 13 8 C13 5.36 13 2.72 13 0 C14.65 0 16.3 0 18 0 C18 7.26 18 14.52 18 22 C16.35 22 14.7 22 13 22 C13 19.36 13 16.72 13 14 C10.69 14 8.38 14 6 14 C6 16.64 6 19.28 6 22 C4.02 22 2.04 22 0 22 C0 14.74 0 7.48 0 0 Z " fill="#FFFFFF" transform="translate(55,3)"/>
<path d="M0 0 C1.98 0 3.96 0 6 0 C6.33 1.98 6.66 3.96 7 6 C7.515625 5.01 8.03125 4.02 8.5625 3 C9.366875 2.01 10.17125 1.02 11 0 C14.75 -0.375 14.75 -0.375 18 0 C16.6302836 3.99500618 14.74277578 6.80009492 12 10 C13.38264837 12.86867231 14.92148553 15.56024032 16.625 18.25 C17.07101563 18.95640625 17.51703125 19.6628125 17.9765625 20.390625 C18.31429687 20.92171875 18.65203125 21.4528125 19 22 C15.8125 22.375 15.8125 22.375 12 22 C9.8596502 20.18811972 8.61011698 18.34198833 7 16 C6.67 17.98 6.34 19.96 6 22 C4.02 22 2.04 22 0 22 C0 14.74 0 7.48 0 0 Z " fill="#FFFFFF" transform="translate(157,3)"/>
<path d="M0 0 C1.65 0 3.3 0 5 0 C8.40295088 7.21035084 11.39132352 14.4654428 14 22 C11.69 22 9.38 22 7 22 C6.67 21.01 6.34 20.02 6 19 C2.58357241 18.74984127 2.58357241 18.74984127 -1 19 C-1.66 19.99 -2.32 20.98 -3 22 C-6.125 22.1875 -6.125 22.1875 -9 22 C-8.06666423 19.45673553 -7.12848392 16.91543412 -6.1875 14.375 C-5.92646484 13.66214844 -5.66542969 12.94929687 -5.39648438 12.21484375 C-3.83035219 7.99982134 -2.09518176 3.98902474 0 0 Z M2 8 C1.67 9.65 1.34 11.3 1 13 C1.99 13 2.98 13 4 13 C3.67 11.35 3.34 9.7 3 8 C2.67 8 2.34 8 2 8 Z " fill="#FFFFFF" transform="translate(95,3)"/>
</svg>
